<svg class="icon" style="width: 1em;height: 1em;vertical-align: middle;fill: currentColor;overflow: hidden;" viewBox="0 0 1024 1024" version="1.1" xmlns="http://www.w3.org/2000/svg" p-id="5333"><path d="M512 0C228.266667 0 0 228.266667 0 512s228.266667 512 512 512 512-228.266667 512-512S795.733333 0 512 0z m224 456.533333V746.666667c0 6.4-6.4 10.666667-14.933333 10.666666-4.266667 0-10.666667-2.133333-12.8-6.4-6.4-10.666667-17.066667-17.066667-27.733334-17.066666s-21.333333 6.4-27.733333 17.066666c-6.4 10.666667-17.066667 17.066667-27.733333 17.066667s-21.333333-6.4-27.733334-17.066667c-6.4-10.666667-17.066667-17.066667-27.733333-17.066666s-21.333333 6.4-27.733333 17.066666c-8.533333 10.666667-19.2 17.066667-29.866667 17.066667s-21.333333-6.4-27.733333-17.066667c-6.4-10.666667-17.066667-17.066667-27.733334-17.066666s-21.333333 6.4-27.733333 17.066666c-6.4 10.666667-17.066667 17.066667-27.733333 17.066667s-21.333333-6.4-27.733334-17.066667c-6.4-10.666667-17.066667-17.066667-27.733333-17.066666s-21.333333 6.4-27.733333 17.066666c-2.133333 4.266667-8.533333 6.4-12.8 6.4-6.4 0-14.933333-4.266667-14.933334-10.666666V296.533333c0-21.333333 17.066667-40.533333 40.533334-40.533333h369.066666c21.333333 0 40.533333 17.066667 40.533334 40.533333v160z" fill="#3D7EFF" p-id="5334"></path><path d="M328.533333 456.533333v241.066667c4.266667-2.133333 10.666667-2.133333 17.066667-2.133333 21.333333 0 42.666667 10.666667 55.466667 27.733333 12.8-17.066667 34.133333-27.733333 55.466666-27.733333s42.666667 10.666667 55.466667 27.733333c12.8-17.066667 34.133333-27.733333 55.466667-27.733333s42.666667 10.666667 55.466666 27.733333c12.8-17.066667 34.133333-27.733333 55.466667-27.733333 6.4 0 10.666667 0 17.066667 2.133333V296.533333H328.533333v160z m64-68.266666h236.8c10.666667 0 19.2 8.533333 19.2 19.2s-8.533333 19.2-19.2 19.2H392.533333c-10.666667 0-19.2-8.533333-19.2-19.2s8.533333-19.2 19.2-19.2z m0 132.266666h236.8c10.666667 0 19.2 8.533333 19.2 19.2s-8.533333 19.2-19.2 19.2H392.533333c-10.666667 0-19.2-8.533333-19.2-19.2s8.533333-19.2 19.2-19.2z" fill="#3D7EFF" p-id="5335"></path></svg>